<?xml version="1.0" encoding="UTF-8"?>
<svg width="16px" height="16px" viewBox="0 0 16 16" version="1.1" xmlns="http://www.w3.org/2000/svg" xmlns:xlink="http://www.w3.org/1999/xlink">
    <!-- Generator: Sketch 54.1 (76490) - https://sketchapp.com -->
    <title>Favicon 1@3x</title>
    <desc>Created with Sketch.</desc>
    <defs>
        <rect id="path-1" x="0.5" y="0.5" width="3" height="3"></rect>
    </defs>
    <g id="Favicon-1" stroke="none" stroke-width="1" fill="none" fill-rule="evenodd">
        <g id="Group-2" transform="translate(4.500000, 2.500000)">
            <g id="S-1" fill="#323643" fill-rule="nonzero">
                <path d="M0.043945312,7.3408203 C0.096028906,7.0283188 0.126953076,6.5221389 0.13671875,5.82226562 L0.46875,5.82226562 C0.485026123,6.2975284 0.51188132,6.5782873 0.54931641,6.6645508 C0.58675149,6.7508142 0.67708262,6.8427729 0.8203125,6.9404297 C0.96354238,7.0380864 1.15559775,7.1251624 1.39648438,7.2016602 C1.637371,7.2781579 1.87011606,7.3164062 2.09472656,7.3164062 C2.42350425,7.3164062 2.7262356,7.2407234 3.00292969,7.0893555 C3.27962378,6.9379875 3.48144468,6.7394218 3.60839844,6.4936523 C3.7353522,6.2478829 3.79882812,5.98502744 3.79882812,5.70507812 C3.79882812,5.4902333 3.76709016,5.30468828 3.70361328,5.1484375 C3.6401364,4.99218672 3.54329492,4.86604866 3.41308594,4.77001953 C3.28287695,4.67399041 3.12174575,4.60644551 2.9296875,4.56738281 C2.80924419,4.54785146 2.56836118,4.51529971 2.20703125,4.46972656 C1.84570132,4.42415342 1.53808721,4.37369819 1.28417969,4.31835938 C0.94563633,4.21419219 0.69661538,4.0921231 0.53710938,3.95214844 C0.377603369,3.81217378 0.248210132,3.62825635 0.148925781,3.40039062 C0.049641431,3.1725249 0,2.92675913 0,2.66308594 C0,2.27896943 0.100096655,1.91683113 0.300292969,1.57666016 C0.50048928,1.23648918 0.79671028,0.97200615 1.18896484,0.78320312 C1.58121941,0.5944001 2.00683364,0.5 2.46582031,0.5 C2.7425144,0.5 3.04443196,0.53662073 3.37158203,0.60986328 C3.6987321,0.68310583 4.00390483,0.78971284 4.28710938,0.9296875 C4.24153623,1.13476665 4.20898447,1.32600823 4.18945312,1.50341797 C4.16992178,1.68082771 4.15527349,1.94205557 4.14550781,2.28710938 L3.81347656,2.28710938 C3.80371089,1.78580479 3.7890626,1.51237002 3.76953125,1.46679688 C3.68815063,1.34960879 3.57747466,1.24381558 3.4375,1.14941406 C3.10221187,0.96061104 2.75228047,0.86621094 2.38769531,0.86621094 C1.91568774,0.86621094 1.53890115,1.01025247 1.25732422,1.29833984 C0.97574729,1.58642722 0.83496094,1.95995864 0.83496094,2.41894531 C0.83496094,2.6956394 0.88541616,2.90966721 0.98632812,3.06103516 C1.08724009,3.2124031 1.26790234,3.3336584 1.52832031,3.42480469 C1.70735767,3.48665396 2.00032349,3.54443333 2.40722656,3.59814453 C2.81412964,3.65185574 3.18033691,3.70963511 3.50585938,3.77148438 C3.81185049,3.86263066 4.03808521,3.97086526 4.18457031,4.09619141 C4.33105542,4.22151755 4.45149692,4.38590393 4.54589844,4.58935547 C4.64029995,4.79280701 4.6875,5.03124863 4.6875,5.3046875 C4.6875,5.9524772 4.418948,6.5172502 3.88183594,6.9990234 C3.34472388,7.4807967 2.64974385,7.7216797 1.796875,7.7216797 C1.15234053,7.7216797 0.56803647,7.5947278 0.043945312,7.3408203 Z" id="S"></path>
            </g>
            <path d="M1.71567234,3.25720582 L3.76737077,3.05175781 L3.76737077,7.85127569 C3.03035903,8.09015646 2.6079021,8.17335866 2.5,8.10088229 C2.33814685,7.99216773 2.63821658,7.86406906 2.5,7 C2.40785561,6.42395396 2.14641306,5.54711241 1.71567234,4.36947535 L1.71567234,3.25720582 Z" id="Rectangle" fill="#FFFFFF"></path>
            <g id="Group" transform="translate(2.500000, 3.500000)">
                <mask id="mask-2" fill="white">
                    <use xlink:href="#path-1"></use>
                </mask>
                <use id="Rectangle" fill="#FFFFFF" xlink:href="#path-1"></use>
                <path d="M-1.95605469,3.8408203 C-1.90397109,3.5283188 -1.87304692,3.0221389 -1.86328125,2.32226562 L-1.53125,2.32226562 C-1.51497388,2.7975284 -1.48811868,3.0782873 -1.45068359,3.1645508 C-1.41324851,3.2508142 -1.32291738,3.3427729 -1.1796875,3.4404297 C-1.03645762,3.5380864 -0.84440225,3.6251624 -0.60351562,3.7016602 C-0.362629,3.7781579 -0.12988394,3.8164062 0.09472656,3.8164062 C0.42350425,3.8164062 0.7262356,3.7407234 1.00292969,3.5893555 C1.27962378,3.4379875 1.48144468,3.2394218 1.60839844,2.9936523 C1.7353522,2.7478829 1.79882812,2.48502744 1.79882812,2.20507812 C1.79882812,1.9902333 1.76709016,1.80468828 1.70361328,1.6484375 C1.6401364,1.49218672 1.54329492,1.36604866 1.41308594,1.27001953 C1.28287695,1.17399041 1.12174575,1.10644551 0.9296875,1.06738281 C0.80924419,1.04785146 0.56836118,1.01529971 0.20703125,0.96972656 C-0.15429868,0.92415342 -0.46191279,0.87369819 -0.71582031,0.81835938 C-1.05436367,0.71419219 -1.30338462,0.5921231 -1.46289062,0.45214844 C-1.62239663,0.31217378 -1.75178987,0.12825635 -1.85107422,-0.09960938 C-1.95035857,-0.3274751 -2,-0.57324087 -2,-0.83691406 C-2,-1.22103057 -1.89990335,-1.58316887 -1.69970703,-1.92333984 C-1.49951072,-2.26351082 -1.20328972,-2.52799385 -0.81103516,-2.71679688 C-0.41878059,-2.9055999 0.00683364,-3 0.46582031,-3 C0.7425144,-3 1.04443196,-2.96337927 1.37158203,-2.89013672 C1.6987321,-2.81689417 2.00390483,-2.71028716 2.28710938,-2.5703125 C2.24153623,-2.36523335 2.20898447,-2.17399177 2.18945312,-1.99658203 C2.16992178,-1.81917229 2.15527349,-1.55794443 2.14550781,-1.21289062 L1.81347656,-1.21289062 C1.80371089,-1.71419521 1.7890626,-1.98762998 1.76953125,-2.03320312 C1.68815063,-2.15039121 1.57747466,-2.25618442 1.4375,-2.35058594 C1.10221187,-2.53938896 0.75228047,-2.63378906 0.38769531,-2.63378906 C-0.08431226,-2.63378906 -0.46109885,-2.48974753 -0.74267578,-2.20166016 C-1.02425271,-1.91357278 -1.16503906,-1.54004136 -1.16503906,-1.08105469 C-1.16503906,-0.8043606 -1.11458384,-0.59033279 -1.01367188,-0.43896484 C-0.91275991,-0.2875969 -0.73209766,-0.1663416 -0.47167969,-0.07519531 C-0.29264233,-0.01334604 0.00032349,0.04443333 0.40722656,0.09814453 C0.81412964,0.15185574 1.18033691,0.20963511 1.50585938,0.27148438 C1.81185049,0.36263066 2.03808521,0.47086526 2.18457031,0.59619141 C2.33105542,0.72151755 2.45149692,0.88590393 2.54589844,1.08935547 C2.64029995,1.29280701 2.6875,1.53124863 2.6875,1.8046875 C2.6875,2.4524772 2.418948,3.0172502 1.88183594,3.4990234 C1.34472388,3.9807967 0.64974385,4.2216797 -0.203125,4.2216797 C-0.84765947,4.2216797 -1.43196353,4.0947278 -1.95605469,3.8408203 Z" id="S-Copy" fill="#323643" fill-rule="nonzero" mask="url(#mask-2)"></path>
            </g>
            <path d="M1.93408203,3.87402344 L1.93408203,3.56152344 C2.42887617,3.58105479 2.84879385,3.59082031 3.19384766,3.59082031 C3.4379895,3.59082031 3.87581064,3.58430996 4.50732422,3.57128906 C5.13883779,3.55826816 5.56526582,3.55175781 5.78662109,3.55175781 C6.02425249,3.55175781 6.24153547,3.55419919 6.43847656,3.55908203 C6.63541765,3.56396487 6.81363853,3.5729166 6.97314453,3.5859375 C6.89176392,3.86263159 6.8396811,4.35579072 6.81689453,5.06542969 L6.50927734,5.06542969 C6.47998032,4.67154751 6.43929062,4.36881616 6.38720703,4.15722656 C6.21793535,4.09863252 6.00879031,4.05550144 5.75976562,4.02783203 C5.51074094,4.00016262 5.22184409,3.98632812 4.89306641,3.98632812 C4.56428872,3.98632812 4.22412285,4.00585918 3.87255859,4.04492188 C3.85302725,4.220704 3.84000654,4.38509038 3.83349609,4.53808594 C3.83024087,4.625977 3.82210293,4.99869463 3.80908203,5.65625 L3.80908203,6.74023438 C4.17366719,6.75000005 4.49592959,6.75488281 4.77587891,6.75488281 C5.18929243,6.75488281 5.51969277,6.73372417 5.76708984,6.69140625 C5.86149136,6.67513013 5.9225259,6.64827493 5.95019531,6.61083984 C5.97786472,6.57340476 6.0079751,6.43587358 6.04052734,6.19824219 L6.07958984,5.89550781 L6.38720703,5.89550781 L6.35302734,7.00878906 L6.38720703,8.20507812 L6.07958984,8.20507812 L6.04541016,7.89257812 C6.00960269,7.53775864 5.98356128,7.34733086 5.96728516,7.32128906 C5.94124336,7.27571592 5.87939502,7.24153657 5.78173828,7.21875 C5.59619048,7.17643208 5.1762728,7.15527344 4.52197266,7.15527344 C4.29085171,7.15527344 4.05322388,7.16178379 3.80908203,7.17480469 L3.80908203,8.16113281 C3.80908203,8.60384336 3.81559238,9.03515415 3.82861328,9.45507812 C3.83512373,9.76432446 3.85709617,9.94824189 3.89453125,10.0068359 C3.93196633,10.06543 3.99300088,10.1085611 4.07763672,10.1362305 C4.16227256,10.1638999 4.39664521,10.1809896 4.78076172,10.1875 L4.78076172,10.5 C4.36734819,10.4739582 3.95556846,10.4609375 3.54541016,10.4609375 C3.17756978,10.4609375 2.64046577,10.4739582 1.93408203,10.5 L1.93408203,10.1875 C2.31819854,10.1809896 2.55257119,10.1638999 2.63720703,10.1362305 C2.72184287,10.1085611 2.78043604,10.0703127 2.81298828,10.0214844 C2.85205098,9.95637988 2.87646479,9.79850386 2.88623047,9.54785156 C2.88948569,9.47949185 2.89599604,9.01725688 2.90576172,8.16113281 L2.90576172,5.90039062 C2.90576172,5.45768008 2.90087896,5.0247417 2.89111328,4.6015625 C2.88134761,4.29231616 2.85774758,4.10921252 2.8203125,4.05224609 C2.78287742,3.99527966 2.72265667,3.95296238 2.63964844,3.92529297 C2.55664021,3.89762356 2.32145376,3.88053389 1.93408203,3.87402344 Z" id="F" fill="#5BEAF3" fill-rule="nonzero"></path>
        </g>
    </g>
</svg>