<?xml version="1.0" encoding="UTF-8"?>
<svg width="14px" height="14px" viewBox="0 0 14 14" version="1.1" xmlns="http://www.w3.org/2000/svg" xmlns:xlink="http://www.w3.org/1999/xlink">
    <!-- Generator: Sketch 54.1 (76490) - https://sketchapp.com -->
    <title>Shape</title>
    <desc>Created with Sketch.</desc>
    <g id="Page-1" stroke="none" stroke-width="1" fill="none" fill-rule="evenodd">
        <g id="Home-Landign-Page" transform="translate(-912.000000, -31.000000)" fill="#0FCEDA">
            <g id="Group-3" transform="translate(912.000000, 23.000000)">
                <path d="M2.8,14.0666667 C3.88888889,16.2444444 5.75555556,18.0333333 7.93333333,19.2 L9.64444444,17.4888889 C9.87777778,17.2555556 10.1888889,17.1777778 10.4222222,17.3333333 C11.2777778,17.6444444 12.2111111,17.8 13.2222222,17.8 C13.6888889,17.8 14,18.1111111 14,18.5777778 L14,21.2222222 C14,21.6888889 13.6888889,22 13.2222222,22 C5.91111111,22 0,16.0888889 0,8.77777778 C0,8.31111111 0.311111111,8 0.777777778,8 L3.5,8 C3.96666667,8 4.27777778,8.31111111 4.27777778,8.77777778 C4.27777778,9.71111111 4.43333333,10.6444444 4.74444444,11.5777778 C4.82222222,11.8111111 4.74444444,12.1222222 4.58888889,12.3555556 L2.8,14.0666667 L2.8,14.0666667 Z" id="Shape"></path>
            </g>
        </g>
    </g>
</svg>