<?xml version="1.0" encoding="UTF-8"?>
<svg width="140px" height="21px" viewBox="0 0 140 21" version="1.1" xmlns="http://www.w3.org/2000/svg" xmlns:xlink="http://www.w3.org/1999/xlink">
    <!-- Generator: Sketch 54.1 (76490) - https://sketchapp.com -->
    <title>Socialfame</title>
    <desc>Created with Sketch.</desc>
    <g id="Page-1" stroke="none" stroke-width="1" fill="none" fill-rule="evenodd">
        <g id="Home-Landign-Page" transform="translate(-50.000000, -29.000000)" fill-rule="nonzero">
            <g id="Socialfame" transform="translate(50.000000, 29.000000)">
                <path d="M75.4889374,8.52888235 L73.0812227,8.52888235 L73.0812227,5.81020588 L75.4889374,5.81020588 L75.4889374,4.6655 C75.4889374,3.34908165 75.8949401,2.27116106 76.7069578,1.43170588 C77.5189754,0.592250705 78.7464256,0.172529412 80.389345,0.172529412 C80.7481435,0.172529412 81.1069366,0.186838092 81.4657351,0.215455882 C81.8245336,0.244073673 82.1738848,0.267921473 82.5137991,0.287 L82.5137991,3.32047059 C82.0416958,3.26323501 81.5507158,3.23461765 81.0408443,3.23461765 C80.4932044,3.23461765 80.1013646,3.36339577 79.865313,3.62095588 C79.6292613,3.87851599 79.5112373,4.31254597 79.5112373,4.92305882 L79.5112373,5.81020588 L82.2871907,5.81020588 L82.2871907,8.52888235 L79.5112373,8.52888235 L79.5112373,20.6055294 L75.4889374,20.6055294 L75.4889374,8.52888235 Z M83.8734498,10.3604118 C83.9301022,9.40648543 84.1661503,8.61473844 84.5816012,7.98514706 C84.9970521,7.35555568 85.5257998,6.8499823 86.1678603,6.46841176 C86.8099207,6.08684123 87.5322279,5.8149763 88.3348035,5.65280882 C89.1373791,5.49064135 89.9446636,5.40955882 90.7566812,5.40955882 C91.4931623,5.40955882 92.2390743,5.46202399 92.9944396,5.56695588 C93.7498048,5.67188778 94.4390653,5.87697887 95.0622416,6.18223529 C95.685418,6.48749172 96.1952819,6.91198258 96.5918486,7.45572059 C96.9884154,7.9994586 97.1866958,8.71966218 97.1866958,9.61635294 L97.1866958,17.3145 C97.1866958,17.9822484 97.2244635,18.6213695 97.3,19.2318824 C97.3755365,19.8423952 97.5077235,20.300273 97.6965648,20.6055294 L93.6176128,20.6055294 C93.5420763,20.3765871 93.4807038,20.1428786 93.4334934,19.9043971 C93.3862831,19.6659155 93.3532364,19.4226679 93.3343523,19.1746471 C92.6922918,19.8423955 91.9369379,20.3098124 91.0682678,20.5769118 C90.1995978,20.8440111 89.3120569,20.9775588 88.4056186,20.9775588 C87.7069058,20.9775588 87.055413,20.8917067 86.4511208,20.72 C85.8468286,20.5482933 85.3180809,20.2811979 84.8648617,19.9187059 C84.4116426,19.5562139 84.0575704,19.0983361 83.8026346,18.5450588 C83.5476989,17.9917815 83.4202329,17.3335822 83.4202329,16.5704412 C83.4202329,15.730986 83.5665827,15.0393998 83.8592868,14.4956618 C84.1519908,13.9519238 84.5296677,13.5178938 84.992329,13.1935588 C85.4549902,12.8692239 85.9837379,12.6259763 86.5785881,12.4638088 C87.1734382,12.3016413 87.7730004,12.1728632 88.3772926,12.0774706 C88.9815848,11.982078 89.576426,11.905765 90.1618341,11.8485294 C90.7472421,11.7912938 91.266548,11.7054417 91.7197671,11.5909706 C92.1729863,11.4764994 92.5317794,11.3095648 92.7961572,11.0901618 C93.060535,10.8707587 93.1832801,10.5511982 93.1643959,10.1314706 C93.1643959,9.69266447 93.0935815,9.34448658 92.9519505,9.08692647 C92.8103195,8.82936636 92.621481,8.62904483 92.3854294,8.48595588 C92.1493778,8.34286693 91.875562,8.24747573 91.5639738,8.19977941 C91.2523856,8.15208309 90.9171973,8.12823529 90.5583988,8.12823529 C89.7652653,8.12823529 89.1420983,8.29993946 88.6888792,8.64335294 C88.23566,8.98676642 87.9712862,9.55911364 87.8957496,10.3604118 L83.8734498,10.3604118 Z M93.1643959,13.3652647 C92.9944387,13.5178929 92.7819955,13.6371319 92.5270597,13.7229853 C92.2721239,13.8088387 91.9983081,13.8803821 91.7056041,13.9376176 C91.4129,13.9948532 91.1060375,14.0425488 90.7850073,14.0807059 C90.463977,14.1188629 90.1429516,14.1665585 89.8219214,14.2237941 C89.5197753,14.2810297 89.2223547,14.3573427 88.9296507,14.4527353 C88.6369466,14.5481279 88.3820147,14.6769061 88.1648472,14.8390735 C87.9476797,15.001241 87.7730041,15.2063321 87.6408151,15.4543529 C87.5086262,15.7023738 87.4425328,16.0171648 87.4425328,16.3987353 C87.4425328,16.7612273 87.5086262,17.0664792 87.6408151,17.3145 C87.7730041,17.5625208 87.9524006,17.7580728 88.1790102,17.9011618 C88.4056198,18.0442507 88.6699936,18.1444115 88.9721397,18.2016471 C89.2742858,18.2588826 89.5858693,18.2875 89.9068996,18.2875 C90.7000331,18.2875 91.3137581,18.1539523 91.7480932,17.8868529 C92.1824282,17.6197536 92.5034536,17.300193 92.711179,16.9281618 C92.9189045,16.5561305 93.0463705,16.1793352 93.0935808,15.7977647 C93.1407911,15.4161942 93.1643959,15.1109423 93.1643959,14.882 L93.1643959,13.3652647 Z M100.415866,5.81020588 L104.211557,5.81020588 L104.211557,7.81344118 L104.26821,7.81344118 C104.796965,7.05030011 105.434295,6.45887465 106.180218,6.03914706 C106.926142,5.61941947 107.780636,5.40955882 108.743726,5.40955882 C109.669049,5.40955882 110.514101,5.59080211 111.278908,5.95329412 C112.043716,6.31578613 112.624394,6.95490719 113.020961,7.87067647 C113.455296,7.22200656 114.045416,6.64965934 114.791339,6.15361765 C115.537262,5.65757595 116.420082,5.40955882 117.439825,5.40955882 C118.214075,5.40955882 118.931661,5.50495003 119.592606,5.69573529 C120.25355,5.88652056 120.820066,6.19177241 121.292169,6.6115 C121.764272,7.03122759 122.132507,7.57972701 122.396885,8.25701471 C122.661263,8.93430241 122.79345,9.74989719 122.79345,10.7038235 L122.79345,20.6055294 L118.77115,20.6055294 L118.77115,12.2205588 C118.77115,11.7245171 118.752266,11.2571002 118.714498,10.8182941 C118.67673,10.379488 118.572868,9.99792319 118.402911,9.67358824 C118.232954,9.34925328 117.982743,9.09169703 117.652271,8.90091176 C117.321798,8.7101265 116.873307,8.61473529 116.306783,8.61473529 C115.740259,8.61473529 115.282326,8.72443518 114.932969,8.94383824 C114.583613,9.16324129 114.309797,9.4494149 114.111514,9.80236765 C113.91323,10.1553204 113.781044,10.5559634 113.714949,11.0043088 C113.648855,11.4526542 113.615808,11.9057624 113.615808,12.3636471 L113.615808,20.6055294 L109.593508,20.6055294 L109.593508,12.3064118 C109.593508,11.8676056 109.584066,11.4335757 109.565182,11.0043088 C109.546298,10.575042 109.466041,10.1791685 109.32441,9.81667647 C109.182779,9.45418446 108.946731,9.16324129 108.616259,8.94383824 C108.285787,8.72443518 107.799528,8.61473529 107.157467,8.61473529 C106.968626,8.61473529 106.718415,8.65766134 106.406827,8.74351471 C106.095239,8.82936808 105.793097,8.99153312 105.500393,9.23001471 C105.207689,9.46849629 104.957478,9.81190462 104.749753,10.26025 C104.542027,10.7085954 104.438166,11.2952513 104.438166,12.0202353 L104.438166,20.6055294 L100.415866,20.6055294 L100.415866,5.81020588 Z M135.823435,11.6195882 C135.634594,10.5893478 135.299406,9.80713993 134.81786,9.27294118 C134.336315,8.73874243 133.604566,8.47164706 132.622591,8.47164706 C131.980531,8.47164706 131.447062,8.58134694 131.022169,8.80075 C130.597276,9.02015306 130.257367,9.29201799 130.002431,9.61635294 C129.747495,9.9406879 129.568099,10.2840962 129.464236,10.6465882 C129.360373,11.0090802 129.299001,11.3334103 129.280116,11.6195882 L135.823435,11.6195882 Z M129.280116,14.1951765 C129.336769,15.5115948 129.667236,16.4655068 130.271528,17.0569412 C130.875821,17.6483755 131.744478,17.9440882 132.877525,17.9440882 C133.689543,17.9440882 134.388245,17.7389971 134.973654,17.3288088 C135.559062,16.9186205 135.917855,16.4845905 136.050044,16.0267059 L139.590801,16.0267059 C139.024277,17.8010089 138.15562,19.0697119 136.984803,19.8328529 C135.813987,20.595994 134.397699,20.9775588 132.735895,20.9775588 C131.583963,20.9775588 130.545352,20.791546 129.620029,20.4195147 C128.694707,20.0474834 127.911027,19.5180623 127.268967,18.8312353 C126.626906,18.1444083 126.131205,17.324044 125.781849,16.3701176 C125.432492,15.4161913 125.257817,14.3668881 125.257817,13.2221765 C125.257817,12.1156219 125.437213,11.0853969 125.796012,10.1314706 C126.15481,9.17754425 126.664674,8.35241034 127.325619,7.65604412 C127.986563,6.95967789 128.774964,6.41117847 129.690844,6.01052941 C130.606725,5.60988035 131.621731,5.40955882 132.735895,5.40955882 C133.982248,5.40955882 135.068069,5.65280639 135.993392,6.13930882 C136.918714,6.62581126 137.678789,7.279241 138.273639,8.09961765 C138.868489,8.9199943 139.298097,9.85482809 139.562475,10.9041471 C139.826852,11.953466 139.921272,13.0504649 139.845735,14.1951765 L129.280116,14.1951765 Z" id="fame" fill="#5BEAF3"></path>
                <path d="M62.1190393,12.3922647 L62.1190393,12.0488529 C62.1190393,9.7403512 60.9860084,8.58611765 58.7199127,8.58611765 C57.1714139,8.58611765 55.8212188,9.11076926 54.6692868,10.1600882 L53.5362445,8.81505882 C54.7825972,7.517719 56.6520982,6.86905882 59.1448035,6.86905882 C59.786864,6.86905882 60.40531,6.96445003 61.0001601,7.15523529 C61.5950103,7.34602056 62.1095951,7.63696373 62.5439301,8.02807353 C62.9782652,8.41918333 63.3276163,8.91044802 63.5919942,9.50188235 C63.856372,10.0933167 63.988559,10.7992116 63.988559,11.6195882 L63.988559,17.6006765 C63.988559,18.1157967 64.0121638,18.654757 64.0593741,19.2175735 C64.1065844,19.7803901 64.158515,20.2430374 64.2151674,20.6055294 L62.4022999,20.6055294 C62.3456475,20.2811945 62.3031588,19.928247 62.2748326,19.5466765 C62.2465064,19.1651059 62.2323435,18.7930802 62.2323435,18.4305882 L62.1756914,18.4305882 C61.6280516,19.327279 60.9812798,19.9711696 60.2353566,20.3622794 C59.4894334,20.7533892 58.5782878,20.9489412 57.5018923,20.9489412 C56.9164842,20.9489412 56.3499688,20.8678587 55.802329,20.7056912 C55.2546892,20.5435237 54.7684301,20.2955066 54.3435371,19.9616324 C53.9186442,19.6277581 53.5787349,19.217576 53.3237991,18.7310735 C53.0688634,18.2445711 52.9413974,17.6769934 52.9413974,17.0283235 C52.9413974,15.9408475 53.2199341,15.0870962 53.777016,14.4670441 C54.3340979,13.846992 55.0328003,13.3843447 55.8731441,13.0790882 C56.7134879,12.7738318 57.6104707,12.5830494 58.5641194,12.5067353 C59.517768,12.4304212 60.391146,12.3922647 61.1842795,12.3922647 L62.1190393,12.3922647 Z M61.1559534,13.9376176 C60.6838501,13.9376176 60.0937299,13.9614654 59.385575,14.0091618 C58.67742,14.0568581 57.9976015,14.1713275 57.346099,14.3525735 C56.6945965,14.5338195 56.1375229,14.8152236 55.6748617,15.1967941 C55.2122005,15.5783647 54.9808734,16.1030163 54.9808734,16.7707647 C54.9808734,17.2095708 55.0705716,17.5863661 55.2499709,17.9011618 C55.4293701,18.2159575 55.6701392,18.4735137 55.9722853,18.6738382 C56.2744314,18.8741628 56.6096197,19.0172496 56.9778603,19.1031029 C57.3461008,19.1889563 57.7190568,19.2318824 58.0967394,19.2318824 C58.7765682,19.2318824 59.3666884,19.1174129 59.8671179,18.8884706 C60.3675474,18.6595283 60.787713,18.3495069 61.1276274,17.9583971 C61.4675417,17.5672873 61.7177527,17.1094095 61.8782678,16.58475 C62.0387829,16.0600905 62.1190393,15.502052 62.1190393,14.9106176 L62.1190393,13.9376176 L61.1559534,13.9376176 Z" id="Combined-Shape" fill="#263237"></path>
                <path d="M49.5422707,2.06129412 C49.5422707,2.46194318 49.4006419,2.79104283 49.1173799,3.04860294 C48.8341179,3.30616305 48.5225345,3.43494118 48.1826201,3.43494118 C47.8427057,3.43494118 47.5311222,3.30616305 47.2478603,3.04860294 C46.9645983,2.79104283 46.8229694,2.46194318 46.8229694,2.06129412 C46.8229694,1.66064506 46.9645983,1.33154541 47.2478603,1.07398529 C47.5311222,0.816425183 47.8427057,0.687647059 48.1826201,0.687647059 C48.5225345,0.687647059 48.8341179,0.816425183 49.1173799,1.07398529 C49.4006419,1.33154541 49.5422707,1.66064506 49.5422707,2.06129412 Z" id="Path" fill="#263237"></path>
                <path d="M29.7706841,13.6001765 C29.7706841,14.6113384 29.5960085,15.5461722 29.2466521,16.4047059 C28.8972957,17.2632396 28.4110366,18.007291 27.7878603,18.6368824 C27.1646839,19.2664737 26.4234929,19.7577384 25.5642649,20.1106912 C24.7050369,20.4636439 23.7561236,20.6401176 22.7174964,20.6401176 C21.6977533,20.6401176 20.7582818,20.4636439 19.8990539,20.1106912 C19.0398259,19.7577384 18.2986348,19.2664737 17.6754585,18.6368824 C17.0522822,18.007291 16.5660231,17.2632396 16.2166667,16.4047059 C15.8673102,15.5461722 15.6926346,14.6113384 15.6926346,13.6001765 C15.6926346,12.5890146 15.8673102,11.6541808 16.2166667,10.7956471 C16.5660231,9.93711335 17.0522822,9.19306197 17.6754585,8.56347059 C18.2986348,7.93387921 19.0398259,7.44261451 19.8990539,7.08966176 C20.7582818,6.73670902 21.6977533,6.56023529 22.7174964,6.56023529 C23.7561236,6.56023529 24.7050369,6.73670902 25.5642649,7.08966176 C26.4234929,7.44261451 27.1646839,7.93387921 27.7878603,8.56347059 C28.4110366,9.19306197 28.8972957,9.93711335 29.2466521,10.7956471 C29.5960085,11.6541808 29.7706841,12.5890146 29.7706841,13.6001765 Z M27.7312082,13.6001765 C27.7312082,12.8561139 27.6131841,12.1597581 27.3771325,11.5110882 C27.1410808,10.8624183 26.8058925,10.2996102 26.3715575,9.82264706 C25.9372225,9.34568389 25.4131957,8.96888864 24.7994614,8.69225 C24.1857272,8.41561136 23.4917457,8.27729412 22.7174964,8.27729412 C21.943247,8.27729412 21.2492656,8.41561136 20.6355313,8.69225 C20.021797,8.96888864 19.5024912,9.34568389 19.0775983,9.82264706 C18.6527053,10.2996102 18.322238,10.8624183 18.0861863,11.5110882 C17.8501347,12.1597581 17.7321106,12.8561139 17.7321106,13.6001765 C17.7321106,14.344239 17.8501347,15.0405948 18.0861863,15.6892647 C18.322238,16.3379346 18.6527053,16.9007427 19.0775983,17.3777059 C19.5024912,17.8546691 20.021797,18.2314643 20.6355313,18.5081029 C21.2492656,18.7847416 21.943247,18.9230588 22.7174964,18.9230588 C23.4917457,18.9230588 24.1857272,18.7847416 24.7994614,18.5081029 C25.4131957,18.2314643 25.9372225,17.8546691 26.3715575,17.3777059 C26.8058925,16.9007427 27.1410808,16.3379346 27.3771325,15.6892647 C27.6131841,15.0405948 27.7312082,14.344239 27.7312082,13.6001765 Z" id="Combined-Shape" fill="#263237"></path>
                <path d="M42.8289956,10.0515882 C42.5079654,9.55554654 42.059474,9.13582525 41.483508,8.79241176 C40.907542,8.44899828 40.2513283,8.27729412 39.5148472,8.27729412 C38.7405978,8.25821559 38.0466164,8.38222415 37.4328821,8.64932353 C36.8191478,8.9164229 36.295121,9.2884486 35.860786,9.76541176 C35.426451,10.2423749 35.0959837,10.8099526 34.8693741,11.4681618 C34.6427645,12.1263709 34.5294614,12.8370354 34.5294614,13.6001765 C34.5294614,14.3633175 34.6427645,15.073982 34.8693741,15.7321912 C35.0959837,16.3904003 35.426451,16.957978 35.860786,17.4349412 C36.295121,17.9119043 36.8191478,18.28393 37.4328821,18.5510294 C38.0466164,18.8181288 38.7405978,18.9421374 39.5148472,18.9230588 C40.2513283,18.9230588 40.907542,18.7513547 41.483508,18.4079412 C42.059474,18.0645277 42.5079654,17.6448064 42.8289956,17.1487647 L44.3586026,18.3220882 C43.697658,19.1043078 42.951746,19.6814246 42.1208443,20.0534559 C41.2899425,20.4254872 40.4212855,20.6210391 39.5148472,20.6401176 C38.4384517,20.6591962 37.4659335,20.4922616 36.5972635,20.1393088 C35.7285934,19.7863561 34.9874024,19.2950914 34.3736681,18.6655 C33.7599339,18.0359086 33.2925586,17.2870877 32.9715284,16.4190147 C32.6504982,15.5509417 32.4899854,14.6113384 32.4899854,13.6001765 C32.4899854,12.5890146 32.6504982,11.6494112 32.9715284,10.7813382 C33.2925586,9.91326527 33.7599339,9.16444432 34.3736681,8.53485294 C34.9874024,7.90526156 35.7285934,7.41399686 36.5972635,7.06104412 C37.4659335,6.70809137 38.4384517,6.54115677 39.5148472,6.56023529 C40.4212855,6.57931382 41.2899425,6.77486579 42.1208443,7.14689706 C42.951746,7.51892833 43.697658,8.09604511 44.3586026,8.87826471 L42.8289956,10.0515882 Z" id="Path" fill="#263237"></path>
                <polygon id="Path-2" fill="#263237" points="70.6168559 20.6055294 68.7473362 20.6055294 68.7473362 0.223176471 70.6168559 0.223176471"></polygon>
                <polygon id="Path" fill="#263237" points="49.1173799 20.6055294 47.2478603 20.6055294 47.2478603 7.21247059 49.1173799 7.21247059"></polygon>
                <path d="M10.7922271,3.69841082 C9.9046729,2.43820527 8.61112931,1.80811195 6.9115575,1.80811195 C6.38280182,1.80811195 5.863496,1.87660036 5.35362445,2.01357922 C4.84375291,2.15055809 4.38581959,2.36058919 3.97981077,2.64367884 C3.57380195,2.92676849 3.24805557,3.29203998 3.00256186,3.73950427 C2.75706816,4.18696856 2.63432314,4.71204632 2.63432314,5.31475332 C2.63432314,6.19141805 2.88925509,6.87173619 3.39912664,7.35572818 C3.90899818,7.83972016 4.54160709,8.23695291 5.29697234,8.54743833 C6.0523376,8.85792375 6.87850595,9.13644326 7.77550218,9.38300522 C8.67249842,9.62956717 9.49866677,9.95831151 10.254032,10.3692481 C11.0093973,10.7801847 11.6420062,11.323526 12.1518777,11.9992884 C12.6617493,12.6750508 12.9166812,13.5973613 12.9166812,14.7662476 C12.9166812,15.6429124 12.7231218,16.4328119 12.3359971,17.1359701 C11.9488724,17.8391283 11.4390085,18.4281286 10.8063901,18.9029886 C10.1737717,19.3778487 9.4656274,19.7431202 8.68193595,19.998814 C7.8982445,20.2545079 7.10984385,20.3823529 6.31671033,20.3823529 C5.0892418,20.3823529 3.92316418,20.1586242 2.8184425,19.7111599 C1.71372082,19.2636956 0.774249383,18.5285867 0,17.5058112 L1.8411936,16.2182163 C2.27552862,16.9305064 2.87981175,17.5012431 3.65406114,17.9304435 C4.42831052,18.359644 5.34417715,18.574241 6.4016885,18.574241 C6.91156005,18.574241 7.42142394,18.4966208 7.93129549,18.3413781 C8.44116703,18.1861354 8.89910035,17.9578407 9.30510917,17.6564872 C9.71111799,17.3551337 10.0463063,16.9852963 10.3106841,16.5469639 C10.575062,16.1086316 10.7072489,15.6063833 10.7072489,15.040204 C10.7072489,14.3644416 10.5608991,13.8028367 10.2681951,13.3553724 C9.97549102,12.9079081 9.58837213,12.5335048 9.10682678,12.2321513 C8.62528144,11.9307978 8.07764984,11.6796737 7.46391557,11.4787713 C6.85018131,11.277869 6.2175724,11.0769697 5.56606987,10.8760674 C4.91456734,10.675165 4.28195843,10.4468703 3.66822416,10.1911765 C3.0544899,9.93548259 2.5068583,9.61130415 2.02531295,9.2186314 C1.54376761,8.82595866 1.15664872,8.33284215 0.863944687,7.73926708 C0.571240652,7.145692 0.42489083,6.40145134 0.42489083,5.50652277 C0.42489083,4.5750665 0.609008348,3.76233744 0.977248908,3.0683112 C1.34548947,2.37428495 1.83646952,1.79898236 2.45020378,1.34238615 C3.06393805,0.885789937 3.75791947,0.547913809 4.53216885,0.328747628 C5.30641823,0.109581447 6.09953985,0 6.9115575,0 C8.04460537,0 9.07377509,0.173503958 9.99909753,0.520517078 C10.92442,0.867530198 11.783635,1.47935994 12.5767686,2.35602467 L10.7922271,3.69841082 Z" id="Path" fill="#263237"></path>
            </g>
        </g>
    </g>
</svg>