<?xml version="1.0" encoding="UTF-8"?>
<svg width="26px" height="26px" viewBox="0 0 26 26" version="1.1" xmlns="http://www.w3.org/2000/svg" xmlns:xlink="http://www.w3.org/1999/xlink">
    <!-- Generator: Sketch 54.1 (76490) - https://sketchapp.com -->
    <title>Twitter</title>
    <desc>Created with Sketch.</desc>
    <g id="Page-1" stroke="none" stroke-width="1" fill="none" fill-rule="evenodd">
        <g id="Home-Landign-Page" transform="translate(-211.000000, -3767.000000)">
            <g id="Group-16" transform="translate(0.000000, 3557.000000)">
                <g id="Twitter" transform="translate(211.000000, 210.000000)">
                    <circle id="Oval-1" fill="#8E99A8" cx="13" cy="13" r="13"></circle>
                    <path d="M18.9547924,8.02773524 C18.5878622,8.26276698 17.7453962,8.60429968 17.3299162,8.60429968 L17.3299162,8.60500127 C16.8555029,8.1094 16.1875917,7.8 15.4468559,7.8 C14.008181,7.8 12.8415816,8.96659937 12.8415816,10.404713 C12.8415816,10.6045251 12.864734,10.799426 12.9075308,10.9863289 L12.9071098,10.9863289 C10.9555746,10.935113 8.82120571,9.95696 7.53631873,8.28283238 C6.74633143,9.65022603 7.4299581,11.1709867 8.32644635,11.7251003 C8.01957206,11.7482527 7.45465397,11.6897403 7.18875238,11.4302933 C7.17093206,12.3378667 7.60731937,13.5403873 9.19851937,13.9766343 C8.89206603,14.1415073 8.34959873,14.0942203 8.11372508,14.059141 C8.19651238,14.8252743 9.26937968,15.8268603 10.442574,15.8268603 C10.0244279,16.3105346 8.45118857,17.1877994 6.68571429,16.9087079 C7.88472698,17.6382184 9.28214857,18.0607143 10.7612349,18.0607143 C14.9644444,18.0607143 18.2286495,14.6542273 18.0529721,10.4518597 C18.0522705,10.4472292 18.0522705,10.4425987 18.0518495,10.4375473 C18.0522705,10.4267429 18.0529721,10.4159384 18.0529721,10.404713 C18.0529721,10.3916635 18.0518495,10.3793156 18.0514286,10.366687 C18.4340743,10.1049949 18.9474959,9.64208762 19.3142857,9.03282921 C19.1015644,9.14999429 18.4634006,9.38460508 17.8695771,9.44283683 C18.2506794,9.23713143 18.8153168,8.5634673 18.9547924,8.02773524" id="Fill-1" fill="#FFFFFF"></path>
                </g>
            </g>
        </g>
    </g>
</svg>